<svg width="261" height="45" viewBox="0 0 261 45" xmlns="http://www.w3.org/2000/svg">
<path d="M6 21V18H3V15H0V6H3V3H6V0H18V3H21V6H15V3H9V6H6V15H9V18H15V15H21V18H18V21H6ZM24 21V0H30V9H39V0H45V21H39V12H30V21H24ZM48 21V6H51V3H54V0H63V3H66V6H69V21H63V15H54V21H48ZM54 12H63V6H60V3H57V6H54V12ZM72 21V0H90V3H93V12H87V15H90V18H93V21H84V18H81V15H78V21H72ZM78 12H84V9H87V3H78V12ZM105 21V3H99V0H117V3H111V21H105ZM120 21V6H123V3H126V0H135V3H138V6H141V21H135V15H126V21H120ZM126 12H135V6H132V3H129V6H126V12ZM150 21V18H147V15H144V6H147V3H150V0H165V3H153V6H150V15H153V18H159V12H156V9H165V21H150ZM168 21V0H186V3H189V12H183V15H186V18H189V21H180V18H177V15H174V21H168ZM174 12H180V9H183V3H174V12ZM192 21V6H195V3H198V0H207V3H210V6H213V21H207V15H198V21H192ZM198 12H207V6H204V3H201V6H198V12ZM216 21V0H222V3H225V6H228V3H231V0H237V21H231V9H228V15H225V9H222V21H216ZM243 21V18H240V15H246V18H255V12H243V9H240V3H243V0H258V3H261V6H255V3H246V9H258V12H261V18H258V21H243ZM3 45V42H6V39H9V36H12V33H9V30H6V27H3V24H9V27H12V30H15V33H18V36H15V39H12V42H9V45H3ZM30 45V42H27V39H24V30H27V27H30V24H42V27H45V30H39V27H33V30H30V39H33V42H39V39H45V42H42V45H30ZM51 45V42H48V27H51V24H66V27H69V42H66V45H51ZM54 42H63V27H54V42ZM72 45V24H78V27H81V30H84V27H87V24H93V45H87V33H84V39H81V33H78V45H72Z" />
</svg>
